<?xml version="1.0" encoding="utf-8"?>
<!-- Generator: Adobe Illustrator 19.0.0, SVG Export Plug-In . SVG Version: 6.00 Build 0)  -->
<svg version="1.1" xmlns="http://www.w3.org/2000/svg" xmlns:xlink="http://www.w3.org/1999/xlink" x="0px" y="0px"
	 viewBox="0 0 1963 874" style="enable-background:new 0 0 1963 874;" xml:space="preserve">
<style type="text/css">
	.st0{fill:#A058A3;}
	.st1{fill:#E2E5E7;}
	.st2{fill:#D2D5D5;}
	.st3{fill:#C6CBCB;}
	.st4{fill:#2E404E;}
	.st5{fill:#4FB1DC;}
	.st6{display:none;}
	.st7{display:inline;fill:#E2E5E7;}
	.st8{display:inline;fill:#D2D5D5;}
	.st9{display:inline;fill:#C6CBCB;}
	.st10{opacity:0.16;fill:#E2E5E7;enable-background:new    ;}
	.st11{fill:#04243E;}
	.st12{fill:#17668A;}
	.st13{fill:none;stroke:#17668A;stroke-width:2;stroke-miterlimit:10;}
	.st14{fill:#E4E9F6;}
	.st15{fill:#C7CFE2;}
	.st16{fill:#D7CED1;}
	.st17{fill:#C3B8B9;}
	.st18{fill:#FFFFFF;}
	.st19{fill:#DFDDE0;}
	.st20{fill:#ADACB2;}
	.st21{fill:#FEDA46;}
	.st22{fill:#F8981E;}
	.st23{fill:#51422F;}
	.st24{fill:#786146;}
	.st25{fill:#7484BF;}
	.st26{fill:#444D6E;}
	.st27{fill:#818181;}
	.st28{fill:#F47A53;}
	.st29{fill:#5DC4B7;}
	.st30{fill:#4E4E4E;}
	.st31{fill:#F9DE58;}
	.st32{fill:#E0BF24;}
	.st33{fill:#AAAAAA;}
	.st34{fill:#85CFCA;}
	.st35{fill:#F8A58A;}
	.st36{fill:#868686;}
	.st37{fill:#FAE98E;}
	.st38{fill:#EAD569;}
	.st39{fill:#E6A089;}
	.st40{fill:#6C4943;}
	.st41{fill:#BFA480;}
	.st42{fill:#BF6F41;}
	.st43{fill:#D8A851;}
	.st44{fill:#A47F46;}
	.st45{fill:#09456E;}
	.st46{fill:#DEEDF8;}
	.st47{fill:#C6DAE5;}
	.st48{fill:#3CB980;}
	.st49{fill:#F0503D;}
	.st50{fill:#F0F3FA;}
	.st51{fill:#5C5E6F;}
	.st52{fill:#57575A;}
	.st53{fill:#CDCDD0;}
</style>
<g id="desk">
	<rect id="XMLID_158_" y="521.5" class="st0" width="1963" height="352.5"/>
</g>
<g id="screen">
	<g id="XMLID_2_">
		<path id="XMLID_18_" class="st1" d="M1175,543c0,5.7-4.6,10.3-10.3,10.3H777.4c-5.7,0-10.3-4.6-10.3-10.3V282.6
			c0-5.7,4.6-10.3,10.3-10.3h387.3c5.7,0,10.3,4.6,10.3,10.3L1175,543L1175,543z"/>
		<path id="XMLID_17_" class="st2" d="M1017.3,553.3H971h-46.3c0,0-1.9,30.9-5.6,37.5H971h51.9
			C1019.1,584.2,1017.3,553.3,1017.3,553.3z"/>
		<path id="XMLID_16_" class="st3" d="M1031.6,593.3c-5.6-0.7-8.7-2.6-8.7-2.6H971h-51.9c0,0-3,1.9-8.7,2.6c-5.6,0.7-9.4,1.2-9.4,4
			H971h69.9C1040.9,594.5,1037.2,594,1031.6,593.3z"/>
		<path id="XMLID_13_" class="st4" d="M1164.7,272.2H777.4c-5.7,0-10.3,4.6-10.3,10.3v233.9H1175V282.6
			C1175,276.9,1170.3,272.2,1164.7,272.2z M1158.1,501.8H953.4H783.9V286.9h300.8h73.3V501.8z"/>
		<polygon id="XMLID_12_" class="st5" points="783.9,286.9 783.9,501.8 953.4,501.8 1158.1,501.8 1158.1,286.9 1084.8,286.9 		"/>
		<path id="XMLID_11_" class="st3" d="M1017.3,553.3H971h-46.3c0,0-0.3,4.6-0.8,10.6h94.2C1017.5,557.9,1017.3,553.3,1017.3,553.3z"
			/>
		<circle id="XMLID_10_" class="st4" cx="971.1" cy="535.7" r="6.7"/>
		<g id="XMLID_4_" class="st6">
			<path id="XMLID_9_" class="st7" d="M1031.5,429.4c0,3.7-3,6.7-6.6,6.7H917.2c-3.7,0-6.6-3-6.6-6.7v-70.1c0-3.7,3-6.7,6.6-6.7
				h107.6c3.7,0,6.6,3,6.6,6.7V429.4z"/>
			<path id="XMLID_8_" class="st8" d="M913.4,434.9c-0.7-0.5-1.2-1-1.7-1.7l47.7-32.2l1.5,1.5L913.4,434.9z"/>
			<path id="XMLID_7_" class="st8" d="M1028.6,434.9c0.7-0.5,1.2-1,1.7-1.7L982.7,401l-1.5,1.5L1028.6,434.9z"/>
			<path id="XMLID_6_" class="st9" d="M910.9,357.3c0.8-2.7,3.4-4.7,6.3-4.7h107.6c2.7,0,5.1,1.7,6.1,4.1c0.1,0.2,0.2,0.5,0.3,0.8
				L988.3,401c0,0-9.2,11.7-17.2,11.7c-7.6,0-17-11.7-17-11.7L910.9,357.3z"/>
			<path id="XMLID_5_" class="st7" d="M910.9,357.3c0.8-2.7,3.4-4.7,6.3-4.7h107.6c2.7,0,5.1,1.7,6.1,4.1c0.1,0.2,0.2,0.5,0.3,0.8
				L985,401c0,0-7.4,6.6-13.9,6.6c-6.7,0-14.1-6.6-14.1-6.6L910.9,357.3z"/>
		</g>
		<path id="XMLID_3_" class="st10" d="M1164.7,272.2h-71L944.4,516.4H1175V282.6C1175,276.9,1170.3,272.2,1164.7,272.2z"/>
	</g>
	<g id="insidescreen">
		<rect id="title" x="919.8" y="307.4" class="st11" width="102.6" height="14.3"/>
		<rect id="subtext_1_" x="900.8" y="333.7" class="st12" width="140.5" height="8"/>
		<rect id="subtext" x="916.8" y="346.5" class="st12" width="108.6" height="8"/>
	</g>
	<g id="box_2_">
		<path id="XMLID_187_" class="st13" d="M909.7,394.5l-50.2,50.2L909.7,394.5z"/>
		<rect id="XMLID_50_" x="859.2" y="394.5" class="st13" width="50.5" height="49.9"/>
		<line id="XMLID_56_" class="st13" x1="859.2" y1="394.5" x2="909.4" y2="444.7"/>
		<rect id="subtitle" x="850.1" y="452.6" class="st12" width="68.4" height="8"/>
	</g>
	<g id="box_1_">
		<path id="XMLID_203_" class="st13" d="M995.9,394.3l-50.2,50.2L995.9,394.3z"/>
		<rect id="XMLID_202_" x="945.4" y="394.3" class="st13" width="50.5" height="49.9"/>
		<line id="XMLID_201_" class="st13" x1="945.4" y1="394.3" x2="995.5" y2="444.5"/>
		<rect id="subtitle_2_" x="936.3" y="451.8" class="st12" width="68.4" height="8"/>
	</g>
	<g id="box">
		<path id="XMLID_228_" class="st13" d="M1082.8,394.5l-50.2,50.2L1082.8,394.5z"/>
		<rect id="XMLID_227_" x="1032.3" y="394.5" class="st13" width="50.5" height="49.9"/>
		<line id="XMLID_226_" class="st13" x1="1032.3" y1="394.5" x2="1082.5" y2="444.7"/>
		<rect id="subtitle_1_" x="1025.5" y="451.8" class="st12" width="68.4" height="8"/>
	</g>
</g>
<g id="keyboard">
	<path id="XMLID_57_" class="st14" d="M1070.1,738.4H862c-6.6,0-12-5.4-12-12v-72c0-6.6,5.4-12,12-12h208.1c6.6,0,12,5.4,12,12v72
		C1082.1,733,1076.7,738.4,1070.1,738.4z"/>
	<g id="keys">
		<path id="key3" class="st15" d="M1014,727.4h-96c-2.8,0-5-2.2-5-5c0-2.8,2.2-5,5-5h96c2.8,0,5,2.2,5,5S1016.8,727.4,1014,727.4z"
			/>
		<path id="XMLID_55_" class="st15" d="M902,727.4h-8c-2.8,0-5-2.2-5-5c0-2.8,2.2-5,5-5h8c2.8,0,5,2.2,5,5S904.7,727.4,902,727.4z"
			/>
		<path id="XMLID_54_" class="st15" d="M878,727.4h-8c-2.8,0-5-2.2-5-5c0-2.8,2.2-5,5-5h8c2.8,0,5,2.2,5,5S880.7,727.4,878,727.4z"
			/>
		<path id="XMLID_53_" class="st15" d="M1062.1,727.4h-8c-2.8,0-5-2.2-5-5c0-2.8,2.2-5,5-5h8c2.8,0,5,2.2,5,5
			S1064.8,727.4,1062.1,727.4z"/>
		<path id="XMLID_52_" class="st15" d="M1038,727.4h-8c-2.8,0-5-2.2-5-5c0-2.8,2.2-5,5-5h8c2.8,0,5,2.2,5,5S1040.8,727.4,1038,727.4
			z"/>
		<path id="XMLID_51_" class="st15" d="M1062.1,711.4h-16c-2.8,0-5-2.2-5-5c0-2.8,2.2-5,5-5h16c2.8,0,5,2.2,5,5
			C1067.1,709.2,1064.8,711.4,1062.1,711.4z"/>
		<path id="key5" class="st15" d="M1030,711.4h-8c-2.8,0-5-2.2-5-5c0-2.8,2.2-5,5-5h8c2.8,0,5,2.2,5,5
			C1035,709.2,1032.8,711.4,1030,711.4z"/>
		<path id="XMLID_49_" class="st15" d="M1006,711.4h-8c-2.8,0-5-2.2-5-5c0-2.8,2.2-5,5-5h8c2.8,0,5,2.2,5,5
			C1011,709.2,1008.8,711.4,1006,711.4z"/>
		<path id="XMLID_48_" class="st15" d="M982,711.4h-8c-2.8,0-5-2.2-5-5c0-2.8,2.2-5,5-5h8c2.8,0,5,2.2,5,5
			C987,709.2,984.8,711.4,982,711.4z"/>
		<path id="XMLID_47_" class="st15" d="M958,711.4h-8c-2.8,0-5-2.2-5-5c0-2.8,2.2-5,5-5h8c2.8,0,5,2.2,5,5
			C963,709.2,960.8,711.4,958,711.4z"/>
		<path id="key2" class="st15" d="M934,711.4h-8c-2.8,0-5-2.2-5-5c0-2.8,2.2-5,5-5h8c2.8,0,5,2.2,5,5
			C939,709.2,936.8,711.4,934,711.4z"/>
		<path id="XMLID_45_" class="st15" d="M910,711.4h-8c-2.8,0-5-2.2-5-5c0-2.8,2.2-5,5-5h8c2.8,0,5,2.2,5,5
			C915,709.2,912.7,711.4,910,711.4z"/>
		<path id="XMLID_44_" class="st15" d="M886,711.4h-16c-2.8,0-5-2.2-5-5c0-2.8,2.2-5,5-5h16c2.8,0,5,2.2,5,5
			C891,709.2,888.7,711.4,886,711.4z"/>
		<path id="XMLID_43_" class="st15" d="M1062.1,679.4h-16c-2.8,0-5-2.2-5-5c0-2.8,2.2-5,5-5h16c2.8,0,5,2.2,5,5
			C1067.1,677.1,1064.8,679.4,1062.1,679.4z"/>
		<path id="XMLID_42_" class="st15" d="M1030,679.4h-8c-2.8,0-5-2.2-5-5c0-2.8,2.2-5,5-5h8c2.8,0,5,2.2,5,5
			C1035,677.1,1032.8,679.4,1030,679.4z"/>
		<path id="XMLID_41_" class="st15" d="M1006,679.4h-8c-2.8,0-5-2.2-5-5c0-2.8,2.2-5,5-5h8c2.8,0,5,2.2,5,5
			C1011,677.1,1008.8,679.4,1006,679.4z"/>
		<path id="XMLID_40_" class="st15" d="M982,679.4h-8c-2.8,0-5-2.2-5-5c0-2.8,2.2-5,5-5h8c2.8,0,5,2.2,5,5
			C987,677.1,984.8,679.4,982,679.4z"/>
		<path id="XMLID_39_" class="st15" d="M958,679.4h-8c-2.8,0-5-2.2-5-5c0-2.8,2.2-5,5-5h8c2.8,0,5,2.2,5,5
			C963,677.1,960.8,679.4,958,679.4z"/>
		<path id="XMLID_38_" class="st15" d="M934,679.4h-8c-2.8,0-5-2.2-5-5c0-2.8,2.2-5,5-5h8c2.8,0,5,2.2,5,5
			C939,677.1,936.8,679.4,934,679.4z"/>
		<path id="key1" class="st15" d="M910,679.4h-8c-2.8,0-5-2.2-5-5c0-2.8,2.2-5,5-5h8c2.8,0,5,2.2,5,5
			C915,677.1,912.7,679.4,910,679.4z"/>
		<path id="XMLID_36_" class="st15" d="M886,679.4h-16c-2.8,0-5-2.2-5-5c0-2.8,2.2-5,5-5h16c2.8,0,5,2.2,5,5
			C891,677.1,888.7,679.4,886,679.4z"/>
		<path id="XMLID_35_" class="st15" d="M1062.1,695.4h-8c-2.8,0-5-2.2-5-5c0-2.8,2.2-5,5-5h8c2.8,0,5,2.2,5,5
			C1067.1,693.1,1064.8,695.4,1062.1,695.4z"/>
		<path id="XMLID_34_" class="st15" d="M1038,695.4h-8c-2.8,0-5-2.2-5-5c0-2.8,2.2-5,5-5h8c2.8,0,5,2.2,5,5
			C1043,693.1,1040.8,695.4,1038,695.4z"/>
		<path id="XMLID_33_" class="st15" d="M1014,695.4h-8c-2.8,0-5-2.2-5-5c0-2.8,2.2-5,5-5h8c2.8,0,5,2.2,5,5
			C1019,693.1,1016.8,695.4,1014,695.4z"/>
		<path id="key4" class="st15" d="M990,695.4h-8c-2.8,0-5-2.2-5-5c0-2.8,2.2-5,5-5h8c2.8,0,5,2.2,5,5
			C995,693.1,992.8,695.4,990,695.4z"/>
		<path id="XMLID_31_" class="st15" d="M966,695.4h-8c-2.8,0-5-2.2-5-5c0-2.8,2.2-5,5-5h8c2.8,0,5,2.2,5,5
			C971,693.1,968.8,695.4,966,695.4z"/>
		<path id="XMLID_30_" class="st15" d="M942,695.4h-8c-2.8,0-5-2.2-5-5c0-2.8,2.2-5,5-5h8c2.8,0,5,2.2,5,5
			C947,693.1,944.8,695.4,942,695.4z"/>
		<path id="XMLID_29_" class="st15" d="M918,695.4h-8c-2.8,0-5-2.2-5-5c0-2.8,2.2-5,5-5h8c2.8,0,5,2.2,5,5
			C923,693.1,920.7,695.4,918,695.4z"/>
		<path id="XMLID_28_" class="st15" d="M894,695.4h-24c-2.8,0-5-2.2-5-5c0-2.8,2.2-5,5-5h24c2.8,0,5,2.2,5,5
			C899,693.1,896.7,695.4,894,695.4z"/>
		<path id="XMLID_27_" class="st15" d="M1062.1,663.4h-8c-2.8,0-5-2.2-5-5s2.2-5,5-5h8c2.8,0,5,2.2,5,5
			C1067.1,661.1,1064.8,663.4,1062.1,663.4z"/>
		<path id="XMLID_26_" class="st15" d="M1038,663.4h-8c-2.8,0-5-2.2-5-5s2.2-5,5-5h8c2.8,0,5,2.2,5,5
			C1043,661.1,1040.8,663.4,1038,663.4z"/>
		<path id="XMLID_25_" class="st15" d="M1014,663.4h-8c-2.8,0-5-2.2-5-5s2.2-5,5-5h8c2.8,0,5,2.2,5,5
			C1019,661.1,1016.8,663.4,1014,663.4z"/>
		<path id="XMLID_24_" class="st15" d="M990,663.4h-8c-2.8,0-5-2.2-5-5s2.2-5,5-5h8c2.8,0,5,2.2,5,5
			C995,661.1,992.8,663.4,990,663.4z"/>
		<path id="XMLID_23_" class="st15" d="M966,663.4h-8c-2.8,0-5-2.2-5-5s2.2-5,5-5h8c2.8,0,5,2.2,5,5
			C971,661.1,968.8,663.4,966,663.4z"/>
		<path id="XMLID_22_" class="st15" d="M942,663.4h-8c-2.8,0-5-2.2-5-5s2.2-5,5-5h8c2.8,0,5,2.2,5,5
			C947,661.1,944.8,663.4,942,663.4z"/>
		<path id="XMLID_21_" class="st15" d="M918,663.4h-8c-2.8,0-5-2.2-5-5s2.2-5,5-5h8c2.8,0,5,2.2,5,5
			C923,661.1,920.7,663.4,918,663.4z"/>
		<path id="XMLID_20_" class="st15" d="M894,663.4h-24c-2.8,0-5-2.2-5-5s2.2-5,5-5h24c2.8,0,5,2.2,5,5
			C899,661.1,896.7,663.4,894,663.4z"/>
	</g>
</g>
<g id="mouse">
	<path id="XMLID_60_" class="st16" d="M1124.3,663.4c-11.5,0-14.4,7.6-14.4,12.7v22.3c0,5.1,2.9,12.7,14.4,12.7
		c11.5,0,14.4-7.6,14.4-12.7v-22.3C1138.7,671,1135.8,663.4,1124.3,663.4z"/>
	<path id="XMLID_59_" class="st17" d="M1124.3,688.6c-0.4,0-0.8-0.4-0.8-0.8v-21.3c0-0.4,0.4-0.8,0.8-0.8s0.8,0.4,0.8,0.8v21.3
		C1125.1,688.3,1124.7,688.6,1124.3,688.6z"/>
	<path id="XMLID_58_" class="st18" d="M1124.3,670.6c-1.6,0-2.8,1.3-2.8,2.8v4.3c0,1.6,1.3,2.8,2.8,2.8s2.8-1.3,2.8-2.8v-4.3
		C1127.1,671.9,1125.8,670.6,1124.3,670.6z"/>
</g>
<g id="coffee">
	<g id="XMLID_1_">
		<polygon id="XMLID_138_" class="st19" points="1270.3,552.5 1271,562.6 1289.2,562.6 1289.2,552.5 		"/>
		<polygon id="XMLID_169_" class="st19" points="1289.2,510 1267.2,510 1267.9,520.1 1289.2,520.1 		"/>
		<polygon id="XMLID_197_" class="st20" points="1289.2,552.5 1289.2,562.6 1307.4,562.6 1308.1,552.5 		"/>
		<polygon id="XMLID_221_" class="st20" points="1289.2,510 1289.2,520.1 1310.5,520.1 1311.2,510 		"/>
		<path id="XMLID_222_" class="st21" d="M1289.2,546.4c-4.5,0-8.1-4.5-8.1-10.1c0-5.6,3.6-10.1,8.1-10.1v-6.1h-21.3h-3l2,32.4h3.3
			h18.9V546.4z"/>
		<path id="XMLID_61_" class="st22" d="M1289.2,520.1v6.1c4.5,0,8.1,4.5,8.1,10.1c0,5.6-3.6,10.1-8.1,10.1v6.1h18.9h3.3l2-32.4h-3
			H1289.2z"/>
		<path id="XMLID_223_" class="st23" d="M1297.3,536.3c0-5.6-3.6-10.1-8.1-10.1v20.2C1293.7,546.4,1297.3,541.9,1297.3,536.3z"/>
		<path id="XMLID_224_" class="st24" d="M1281.1,536.3c0,5.6,3.6,10.1,8.1,10.1v-20.2C1284.7,526.2,1281.1,530.7,1281.1,536.3z"/>
		<polygon id="XMLID_225_" class="st23" points="1311.2,510 1315.5,510 1315.5,501.9 1307.4,501.9 1307.4,493.8 1271,493.8 
			1271,501.9 1262.9,501.9 1262.9,510 1267.2,510 1289.2,510 		"/>
	</g>
</g>
<g id="pen">
	<g id="XMLID_159_">
		<path id="XMLID_157_" class="st25" d="M674.3,623.5c0.2,0.2,0.3,0.4,0.3,0.7v3c0,0.6-0.4,1-1,1c-0.6,0-1-0.4-1-1v-3
			c0-0.6,0.4-1,1-1C673.9,623.2,674.2,623.3,674.3,623.5"/>
		<polygon id="XMLID_156_" class="st26" points="720.5,635.2 666.7,635.2 666.7,627.2 720.5,627.2 		"/>
		<g id="XMLID_164_">
			<path id="XMLID_155_" class="st25" d="M737.1,630.5c0.2,0.2,0.3,0.4,0.3,0.7c0,0.6-0.4,1-1,1h-2c-0.6,0-1-0.4-1-1s0.4-1,1-1h2
				C736.7,630.2,737,630.3,737.1,630.5"/>
			<polygon id="XMLID_154_" class="st25" points="662.7,628.2 666.7,628.2 666.7,634.2 662.7,634.2 			"/>
			<polygon id="XMLID_153_" class="st25" points="696.6,621.2 696.6,624.2 668.7,624.2 668.7,621.2 			"/>
			<polygon id="XMLID_152_" class="st25" points="726.5,627.2 726.5,635.2 720.5,635.2 720.5,627.2 			"/>
		</g>
		<g id="XMLID_161_">
			<path id="XMLID_151_" class="st26" d="M726.5,634.2L726.5,634.2v-6l0,0c2.5-0.6,5.1,0.1,6.9,1.9l1.1,1.1l-1.1,1.1
				C731.6,634.1,728.9,634.8,726.5,634.2"/>
			<polygon id="XMLID_150_" class="st26" points="662.7,628.2 662.7,634.2 658.7,634.2 658.7,628.2 			"/>
		</g>
		<polygon id="XMLID_62_" class="st25" points="712.5,631.2 712.5,635.2 674.6,635.2 674.6,631.2 		"/>
	</g>
</g>
<g id="phone">
	<g id="XMLID_63_">
		<path id="XMLID_149_" class="st27" d="M771.4,653.3h28c2,0,3.6,1.6,3.6,3.6v57.1c0,2-1.6,3.6-3.6,3.6h-28c-2,0-3.6-1.6-3.6-3.6
			v-57.1C767.8,654.9,769.4,653.3,771.4,653.3"/>
		<polyline id="XMLID_148_" class="st18" points="801.3,661.7 801.3,707.9 769.4,707.9 769.4,661.7 801.3,661.7 		"/>
		<rect id="XMLID_147_" x="771.6" y="693.1" class="st28" width="12.6" height="12.6"/>
		<polyline id="XMLID_146_" class="st29" points="771.6,678.7 784.3,678.7 784.3,690.9 771.6,690.9 771.6,678.7 		"/>
		<polyline id="XMLID_145_" class="st28" points="771.6,663.9 784.3,663.9 784.3,676.5 771.6,676.5 771.6,663.9 		"/>
		<polyline id="XMLID_144_" class="st29" points="799.1,663.9 799.1,676.5 786.5,676.5 786.5,663.9 799.1,663.9 		"/>
		<polyline id="XMLID_143_" class="st28" points="786.5,690.9 786.5,678.7 799.1,678.7 799.1,690.9 786.5,690.9 		"/>
		<polyline id="XMLID_142_" class="st29" points="786.5,693.1 799.1,693.1 799.1,705.7 786.5,705.7 786.5,693.1 		"/>
		<circle id="XMLID_141_" class="st30" cx="785.4" cy="712.9" r="2.8"/>
		<polyline id="XMLID_140_" class="st30" points="797.5,688 797.2,688.8 794,686.6 794.8,686.1 797.5,688 		"/>
		<polyline id="XMLID_139_" class="st30" points="789.6,680.1 791.5,682.8 791,683.6 788.8,680.4 789.6,680.1 		"/>
		<path id="XMLID_137_" class="st30" d="M797.2,688.8l-1.8,0.7c-1.7-0.6-3.3-1.5-4.5-2.8c-1.3-1.3-2.2-2.8-2.8-4.5l0.7-1.8l2.2,3.1
			l-0.7,0.2c0.4,0.7,0.9,1.4,1.5,2c0.6,0.6,1.3,1.1,2,1.5l0.2-0.7L797.2,688.8"/>
		<path id="XMLID_134_" class="st31" d="M782.6,695.2l-1.5-0.3l-2-0.3l-6.1,6.1l4.1,4.1l6.1-6.1L782.6,695.2z M780.4,697.5
			c-0.4-0.4-0.4-1,0-1.4c0.4-0.4,1-0.4,1.4,0c0.4,0.4,0.4,1,0,1.4C781.4,697.9,780.7,697.9,780.4,697.5z"/>
		<path id="XMLID_120_" class="st18" d="M775.6,673.1h1.3h4h1.3l1.4-5.7h-9.5L775.6,673.1 M778.6,669.1h-1.5l-0.1-0.9h1.6
			L778.6,669.1 M779.3,668.1h1.6l-0.1,0.9h-1.5V668.1 M776.4,669.1h-1l-0.2-0.9h1.2L776.4,669.1 M775.5,669.8h1l0.1,1h-0.9
			L775.5,669.8 M777.2,669.8h1.4v1h-1.2L777.2,669.8 M779.3,669.8h1.4l-0.1,1h-1.2V669.8 M781.4,669.8h1l-0.2,1h-0.9L781.4,669.8
			 M781.5,669.1l0.1-0.9h1.2l-0.2,0.9H781.5 M776.1,672.4l-0.2-0.9h0.8l0.1,0.9H776.1 M777.4,671.5h1.2v0.9h-1L777.4,671.5
			 M779.3,672.4v-0.9h1.2l-0.1,0.9H779.3 M781.1,672.4l0.1-0.9h0.8l-0.2,0.9H781.1"/>
		<polygon id="XMLID_119_" class="st18" points="774.2,667.4 774.9,667.4 774.4,665.3 772.2,665.3 772.2,666.1 773.8,666.1 		"/>
		<circle id="XMLID_118_" class="st18" cx="777.4" cy="674.4" r="0.8"/>
		<circle id="XMLID_117_" class="st18" cx="781.3" cy="674.4" r="0.8"/>
		<circle id="XMLID_116_" class="st31" cx="778" cy="684.8" r="4.8"/>
		<circle id="XMLID_115_" class="st18" cx="778" cy="684.8" r="3.5"/>
		<polygon id="XMLID_114_" class="st27" points="778.4,682.2 777.7,682.2 777.7,685.3 780.2,685.3 780.2,684.6 778.4,684.6 		"/>
		<path id="XMLID_113_" class="st18" d="M795.2,701c0-1.3-1.1-2.4-2.4-2.4c-0.4,0-0.8-0.4-0.8-0.8c0-0.4,0.4-0.8,0.8-0.8h1.6v-1.6
			h-0.8v-1.4H792v1.5c-0.9,0.3-1.6,1.2-1.6,2.2c0,1.3,1.1,2.4,2.4,2.4c0.4,0,0.8,0.4,0.8,0.8s-0.4,0.8-0.8,0.8h-1.6v1.6h0.8v1.4h1.6
			v-1.5C794.5,702.9,795.2,702,795.2,701"/>
		<polyline id="XMLID_112_" class="st31" points="796,669.9 796,675.2 789.6,675.2 789.6,669.9 796,669.9 		"/>
		<polyline id="XMLID_111_" class="st31" points="796.4,669.9 789.1,669.9 789.1,668.3 796.4,668.3 796.4,669.9 		"/>
		<polyline id="XMLID_110_" class="st32" points="796,669.9 796,670.6 789.6,670.6 789.6,669.9 796,669.9 		"/>
		<path id="XMLID_106_" class="st28" d="M795.4,665.7c-0.3-0.3-0.7-0.4-1.1-0.4c-0.4,0-0.8,0.2-1.1,0.4c-0.3,0.3-0.4,0.7-0.4,1.1
			c0-0.4-0.2-0.8-0.4-1.1c-0.3-0.3-0.7-0.4-1.1-0.4c-0.4,0-0.8,0.2-1.1,0.4c-0.3,0.3-0.4,0.7-0.4,1.1c0,0.8,0.7,1.5,1.5,1.5h0.8v6.9
			h1.5v-6.9h0.7c0.8,0,1.5-0.7,1.5-1.5C795.8,666.4,795.6,666,795.4,665.7 M792,667.5h-0.7c-0.4,0-0.7-0.3-0.7-0.7
			c0-0.2,0.1-0.4,0.2-0.5c0.1-0.1,0.3-0.2,0.5-0.2s0.4,0.1,0.5,0.2c0.1,0.1,0.2,0.3,0.2,0.5V667.5 M794.3,667.5h-0.7v-0.7
			c0-0.2,0.1-0.4,0.2-0.5c0.1-0.1,0.3-0.2,0.5-0.2s0.4,0.1,0.5,0.2c0.1,0.1,0.2,0.3,0.2,0.5C795,667.2,794.7,667.5,794.3,667.5"/>
		<path id="XMLID_105_" class="st18" d="M799.3,717.5h-3.7l0,0L799.3,717.5C799.3,717.5,799.3,717.5,799.3,717.5"/>
		<path id="XMLID_104_" class="st33" d="M799.3,653.3h-23.2l2.6,8.5h22.6v46.1h-8.6l2.9,9.6l3.7,0c2,0,3.6-1.7,3.6-3.7V657
			C803,654.9,801.3,653.3,799.3,653.3"/>
		<path id="XMLID_101_" class="st18" d="M786.5,676.5v-12.6h12.6v12.6H786.5 M801.3,661.7h-22.6l0.7,2.2h5v12.6h-1.1l0.7,2.2h0.4
			v1.5l2.2,7.2v-8.7h12.6v12.1h-11.6l0.7,2.2h10.9v12.6H792l0.7,2.2h8.6L801.3,661.7"/>
		<polyline id="XMLID_100_" class="st34" points="784.3,678.7 783.8,678.7 784.3,680.2 784.3,678.7 		"/>
		<path id="XMLID_94_" class="st35" d="M782,671.5h-0.3l0.2,0.6L782,671.5 M782.4,669.8h-1l-0.1,0.7l0.1,0.3h0.7L782.4,669.8
			 M780.9,668.1h-0.3l0.2,0.7L780.9,668.1 M782.8,668.1h-1.2l-0.1,0.9h1L782.8,668.1 M784.3,663.9h-5l1.1,3.5h3.3l-1.4,5.7h-0.2
			l1,3.4h1.1V663.9"/>
		<path id="XMLID_91_" class="st34" d="M792.8,666.8c0-0.4,0.2-0.8,0.4-1.1c0.3-0.3,0.7-0.4,1.1-0.4c0.4,0,0.8,0.2,1.1,0.4
			c0.3,0.3,0.4,0.7,0.4,1.1c0,0.8-0.7,1.5-1.5,1.5h-0.7h2.9v1.6H796v0.8v4.6h-6.4v-5.4h-0.4v-1.6h3h-0.8c-0.8,0-1.5-0.7-1.5-1.5
			c0-0.4,0.2-0.8,0.4-1.1c0.3-0.3,0.7-0.4,1.1-0.4c0.4,0,0.8,0.2,1.1,0.4C792.6,666,792.8,666.4,792.8,666.8 M799.1,663.9h-12.6
			v12.6h12.6V663.9"/>
		<path id="XMLID_88_" class="st35" d="M788.8,680.4l0.8-0.4l2,2.8l-0.6,0.7l-0.7,0.2c0.4,0.7,0.9,1.4,1.5,2c0.6,0.6,1.3,1.1,2,1.5
			l0.2-0.7l0.7-0.6l2.8,2l-0.4,0.8l-1.8,0.7c-1.7-0.6-3.3-1.5-4.5-2.8c-1.3-1.3-2.2-2.8-2.8-4.5L788.8,680.4 M799.1,678.7h-12.6v8.7
			l1.1,3.5h11.6V678.7"/>
		<path id="XMLID_87_" class="st34" d="M799.1,693.1h-10.9l3,9.9v-1.2h1.6c0.4,0,0.8-0.4,0.8-0.8s-0.4-0.8-0.8-0.8
			c-1.3,0-2.4-1.1-2.4-2.4c0-1,0.7-1.9,1.6-2.2v-1.5h1.6v1.4h0.8v1.6h-1.6c-0.4,0-0.8,0.4-0.8,0.8c0,0.4,0.4,0.8,0.8,0.8
			c1.3,0,2.4,1.1,2.4,2.4c0,1-0.7,1.9-1.6,2.2v1.5H792v-1.4h-0.7l0.7,2.3h7.1L799.1,693.1"/>
		<polyline id="XMLID_86_" class="st36" points="794.8,686.1 794,686.6 797.2,688.8 797.5,688 794.8,686.1 		"/>
		<polyline id="XMLID_85_" class="st36" points="789.6,680.1 788.8,680.4 791,683.6 791.5,682.8 789.6,680.1 		"/>
		<path id="XMLID_84_" class="st36" d="M788.8,680.4l-0.7,1.8c0.6,1.7,1.5,3.3,2.8,4.5c1.3,1.3,2.8,2.2,4.5,2.8l1.8-0.7l-3.1-2.2
			l-0.2,0.7c-0.7-0.4-1.4-0.9-2-1.5c-0.6-0.6-1.1-1.3-1.5-2l0.7-0.2L788.8,680.4"/>
		<path id="XMLID_81_" class="st18" d="M781.5,669.1l0.1-0.9h1.2l-0.2,0.9H781.5 M783.7,667.4h-3.3l0.2,0.7h0.3l-0.1,0.7l0.5,1.6
			l0.1-0.7h1l-0.2,1h-0.7l0.2,0.7h0.3l-0.1,0.6l0.3,1h0.2L783.7,667.4"/>
		<path id="XMLID_78_" class="st34" d="M791.3,666.1c-0.2,0-0.4,0.1-0.5,0.2c-0.1,0.1-0.2,0.3-0.2,0.5c0,0.4,0.3,0.7,0.7,0.7h0.7
			v-0.7c0-0.2-0.1-0.4-0.2-0.5C791.6,666.2,791.5,666.1,791.3,666.1 M794.3,666.1c-0.2,0-0.4,0.1-0.5,0.2c-0.1,0.1-0.2,0.3-0.2,0.5
			v0.7h0.7c0.4,0,0.7-0.3,0.7-0.7c0-0.2-0.1-0.4-0.2-0.5C794.7,666.2,794.5,666.1,794.3,666.1"/>
		<path id="XMLID_77_" class="st18" d="M793.6,694.1H792v1.5c-0.9,0.3-1.6,1.2-1.6,2.2c0,1.3,1.1,2.4,2.4,2.4c0.4,0,0.8,0.4,0.8,0.8
			s-0.4,0.8-0.8,0.8h-1.6v1.2l0.1,0.4h0.7v1.4h1.6v-1.5c0.9-0.3,1.6-1.2,1.6-2.2c0-1.3-1.1-2.4-2.4-2.4c-0.4,0-0.8-0.4-0.8-0.8
			c0-0.4,0.4-0.8,0.8-0.8h1.6v-1.6h-0.8L793.6,694.1"/>
		<polyline id="XMLID_76_" class="st37" points="789.6,669.9 789.6,669.9 789.6,675.2 796,675.2 796,670.6 793.6,670.6 793.6,675.2 
			792.1,675.2 792.1,670.6 789.6,670.6 789.6,669.9 		"/>
		<path id="XMLID_73_" class="st37" d="M792.1,668.3h-3v1.6h0.4h2.5V668.3 M796.4,668.3h-2.9v1.6h2.4h0.4V668.3"/>
		<path id="XMLID_70_" class="st38" d="M792.1,669.9h-2.5v0.8h2.5V669.9 M796,669.9h-2.4v0.8h2.4V669.9"/>
		<path id="XMLID_65_" class="st35" d="M792.1,670.6v-0.8h1.5v0.8H792.1 M791.3,667.5c-0.4,0-0.7-0.3-0.7-0.7c0-0.2,0.1-0.4,0.2-0.5
			c0.1-0.1,0.3-0.2,0.5-0.2s0.4,0.1,0.5,0.2c0.1,0.1,0.2,0.3,0.2,0.5v0.7H791.3 M793.6,667.5v-0.7c0-0.2,0.1-0.4,0.2-0.5
			c0.1-0.1,0.3-0.2,0.5-0.2s0.4,0.1,0.5,0.2c0.1,0.1,0.2,0.3,0.2,0.5c0,0.4-0.3,0.7-0.7,0.7H793.6 M794.3,665.3
			c-0.4,0-0.8,0.2-1.1,0.4c-0.3,0.3-0.4,0.7-0.4,1.1c0-0.4-0.2-0.8-0.4-1.1c-0.3-0.3-0.7-0.4-1.1-0.4c-0.4,0-0.8,0.2-1.1,0.4
			c-0.3,0.3-0.4,0.7-0.4,1.1c0,0.8,0.7,1.5,1.5,1.5h0.8v1.6v0.8v4.6h1.5v-4.6v-0.8v-1.6h0.7c0.8,0,1.5-0.7,1.5-1.5
			c0-0.4-0.2-0.8-0.4-1.1C795.1,665.4,794.7,665.3,794.3,665.3"/>
		<polyline id="XMLID_64_" class="st39" points="793.6,669.9 792.1,669.9 792.1,670.6 793.6,670.6 793.6,669.9 		"/>
	</g>
</g>
<g id="book">
	<path id="XMLID_185_" class="st40" d="M723.9,725.3h-47.6v-78.4h47.6c2.3,0,4.2,1.9,4.2,4.2v70
		C728.1,723.4,726.3,725.3,723.9,725.3z"/>
	<rect id="XMLID_184_" x="712.7" y="646.9" class="st41" width="7" height="78.4"/>
	<rect id="XMLID_183_" x="660.9" y="646.9" class="st42" width="15.4" height="78.4"/>
	<circle id="XMLID_182_" class="st40" cx="666.5" cy="709.9" r="2.8"/>
	<circle id="XMLID_181_" class="st40" cx="666.5" cy="701.5" r="2.8"/>
	<circle id="XMLID_180_" class="st40" cx="666.5" cy="693.1" r="2.8"/>
	<circle id="XMLID_179_" class="st40" cx="666.5" cy="684.7" r="2.8"/>
	<path id="XMLID_178_" class="st43" d="M653.9,684.7c0,1.6,0.5,3,1.4,4.2c0.6-0.7,1.3-1.4,2.1-1.8c-0.5-0.7-0.7-1.5-0.7-2.4
		c0-2.3,1.9-4.2,4.2-4.2c2.3,0,4.2,1.9,4.2,4.2c0,0.8,0.6,1.4,1.4,1.4c0.8,0,1.4-0.6,1.4-1.4c0-3.9-3.1-7-7-7
		C657.1,677.7,653.9,680.8,653.9,684.7z"/>
	<path id="XMLID_177_" class="st44" d="M657.5,690.7c1,0.6,2.2,1,3.5,1v-2.8C659.5,688.9,658.2,689.6,657.5,690.7z"/>
	<path id="XMLID_176_" class="st44" d="M657.5,699.1c1,0.6,2.2,1,3.5,1v-2.8C659.5,697.3,658.2,698,657.5,699.1z"/>
	<path id="XMLID_175_" class="st43" d="M657.5,687c-0.8,0.5-1.5,1.1-2.1,1.8c-0.9,1.2-1.4,2.6-1.4,4.2c0,1.6,0.5,3,1.4,4.2
		c0.6-0.7,1.3-1.4,2.1-1.8c-0.5-0.7-0.7-1.5-0.7-2.4s0.3-1.7,0.7-2.4c0.8-1.1,2-1.8,3.5-1.8c2.3,0,4.2,1.9,4.2,4.2
		c0,0.8,0.6,1.4,1.4,1.4c0.8,0,1.4-0.6,1.4-1.4c0-3.9-3.1-7-7-7C659.7,686.1,658.5,686.4,657.5,687z"/>
	<path id="XMLID_174_" class="st44" d="M657.5,707.5c1,0.6,2.2,1,3.5,1v-2.8C659.5,705.7,658.2,706.4,657.5,707.5z"/>
	<path id="XMLID_173_" class="st43" d="M657.5,695.4c-0.8,0.5-1.5,1.1-2.1,1.8c-0.9,1.2-1.4,2.6-1.4,4.2c0,1.6,0.5,3,1.4,4.2
		c0.6-0.7,1.3-1.4,2.1-1.8c-0.5-0.7-0.7-1.5-0.7-2.4s0.3-1.7,0.7-2.4c0.8-1.1,2-1.8,3.5-1.8c2.3,0,4.2,1.9,4.2,4.2
		c0,0.8,0.6,1.4,1.4,1.4c0.8,0,1.4-0.6,1.4-1.4c0-3.9-3.1-7-7-7C659.7,694.5,658.5,694.8,657.5,695.4z"/>
	<circle id="XMLID_172_" class="st40" cx="666.5" cy="676.3" r="2.8"/>
	<circle id="XMLID_171_" class="st40" cx="666.5" cy="667.9" r="2.8"/>
	<circle id="XMLID_170_" class="st40" cx="666.5" cy="659.5" r="2.8"/>
	<path id="XMLID_168_" class="st43" d="M653.9,659.5c0,1.6,0.5,3,1.4,4.2c0.6-0.7,1.3-1.4,2.1-1.8c-0.5-0.7-0.7-1.5-0.7-2.4
		c0-2.3,1.9-4.2,4.2-4.2c2.3,0,4.2,1.9,4.2,4.2c0,0.8,0.6,1.4,1.4,1.4c0.8,0,1.4-0.6,1.4-1.4c0-3.9-3.1-7-7-7
		C657.1,652.5,653.9,655.6,653.9,659.5z"/>
	<path id="XMLID_167_" class="st44" d="M657.5,665.5c1,0.6,2.2,1,3.5,1v-2.8C659.5,663.7,658.2,664.4,657.5,665.5z"/>
	<path id="XMLID_166_" class="st44" d="M657.5,673.9c1,0.6,2.2,1,3.5,1v-2.8C659.5,672.1,658.2,672.8,657.5,673.9z"/>
	<path id="XMLID_165_" class="st43" d="M657.5,661.8c-0.8,0.5-1.5,1.1-2.1,1.8c-0.9,1.2-1.4,2.6-1.4,4.2s0.5,3,1.4,4.2
		c0.6-0.7,1.3-1.4,2.1-1.8c-0.5-0.7-0.7-1.5-0.7-2.4s0.3-1.7,0.7-2.4c0.8-1.1,2-1.8,3.5-1.8c2.3,0,4.2,1.9,4.2,4.2
		c0,0.8,0.6,1.4,1.4,1.4c0.8,0,1.4-0.6,1.4-1.4c0-3.9-3.1-7-7-7C659.7,660.9,658.5,661.2,657.5,661.8z"/>
	<path id="XMLID_163_" class="st44" d="M657.5,682.3c1,0.6,2.2,1,3.5,1v-2.8C659.5,680.5,658.2,681.2,657.5,682.3z"/>
	<path id="XMLID_162_" class="st43" d="M657.5,670.2c-0.8,0.5-1.5,1.1-2.1,1.8c-0.9,1.2-1.4,2.6-1.4,4.2c0,1.6,0.5,3,1.4,4.2
		c0.6-0.7,1.3-1.4,2.1-1.8c-0.5-0.7-0.7-1.5-0.7-2.4c0-0.9,0.3-1.7,0.7-2.4c0.8-1.1,2-1.8,3.5-1.8c2.3,0,4.2,1.9,4.2,4.2
		c0,0.8,0.6,1.4,1.4,1.4c0.8,0,1.4-0.6,1.4-1.4c0-3.9-3.1-7-7-7C659.7,669.3,658.5,669.6,657.5,670.2z"/>
	<path id="XMLID_160_" class="st43" d="M657.5,703.8c-0.8,0.5-1.5,1.1-2.1,1.8c-0.9,1.2-1.4,2.6-1.4,4.2c0,3.9,3.1,7,7,7v-2.8
		c-2.3,0-4.2-1.9-4.2-4.2c0-0.9,0.3-1.7,0.7-2.4c0.8-1.1,2-1.8,3.5-1.8c2.3,0,4.2,1.9,4.2,4.2c0,0.8,0.6,1.4,1.4,1.4
		c0.8,0,1.4-0.6,1.4-1.4c0-3.9-3.1-7-7-7C659.7,702.9,658.5,703.2,657.5,703.8z"/>
</g>
<g id="tablet">
	<path id="XMLID_208_" class="st45" d="M1258.3,729.8c0,3.6-2.9,6.4-6.4,6.4h-65c-3.6,0-6.4-2.9-6.4-6.4v-92c0-3.6,2.9-6.4,6.4-6.4
		h65c3.6,0,6.4,2.9,6.4,6.4V729.8z"/>
	<path id="XMLID_207_" class="st11" d="M1187.2,631.3h64.6c3.6,0,6.4,2.9,6.4,6.4v91.9c0,3.6-2.9,6.4-6.4,6.4h-64.6"/>
	<path id="XMLID_206_" class="st46" d="M1251.5,719.1c0,2.9-2,5.2-5.1,5.2h-54.1c-2.9,0-5.1-2.4-5.1-5.2v-76.8c0-2.9,2-5.9,5.1-5.9
		h54.1c2.9,0,5.1,3,5.1,5.9V719.1z"/>
	<path id="XMLID_205_" class="st47" d="M1192.3,636.4h54.1c2.9,0,5.1,3,5.1,5.9V719c0,2.9-2,5.2-5.1,5.2"/>
	<rect id="XMLID_204_" x="1194" y="649.9" class="st11" width="15.2" height="20.3"/>
	<g id="group_x5F_text">
		<rect id="line4" x="1212.6" y="651.6" class="st45" width="32.1" height="1.7"/>
		<rect id="line3" x="1212.6" y="656.7" class="st45" width="32.1" height="1.7"/>
		<rect id="line2" x="1212.6" y="661.8" class="st45" width="32.1" height="1.7"/>
		<rect id="line1" x="1212.6" y="666.8" class="st45" width="20.3" height="1.7"/>
		<circle id="XMLID_199_" class="st45" cx="1212.7" cy="644" r="1.2"/>
		<circle id="XMLID_198_" class="st45" cx="1219.3" cy="644" r="1.2"/>
		<circle id="XMLID_196_" class="st45" cx="1225.9" cy="644" r="1.2"/>
	</g>
	<rect id="XMLID_194_" x="1194" y="677" class="st48" width="50.8" height="10.2"/>
	<g id="bars">
		<rect id="XMLID_193_" x="1194" y="692.2" class="st49" width="6.8" height="25.4"/>
		<rect id="XMLID_192_" x="1205.8" y="697.3" class="st49" width="5.1" height="20.3"/>
		<rect id="XMLID_191_" x="1216" y="704.1" class="st49" width="6.8" height="13.5"/>
		<rect id="XMLID_190_" x="1227.8" y="700.7" class="st49" width="5.1" height="16.9"/>
		<rect id="XMLID_189_" x="1237.9" y="707.5" class="st49" width="6.8" height="10.2"/>
	</g>
	<circle id="XMLID_188_" class="st49" cx="1219.3" cy="730.1" r="2.7"/>
</g>
<g id="glasses">
	<path id="XMLID_218_" class="st50" d="M1160,597.5c0.2-0.3,1-1.6,5-2.8c4.5-1.4,10.5-2,15-2c3.2,0,5.6,0.3,6.5,0.8
		c2.2,1.4,3.2,9.5,0.1,16.5c-2.6,6-16.2,6.6-19.7,5.4c-1.7-0.6-4-3.5-5.6-7.2C1159.4,604.1,1158.9,599.9,1160,597.5z"/>
	<path id="XMLID_217_" class="st14" d="M1183.7,613c3-7.1,2.1-15.2-0.1-16.5c-0.8-0.5-3.3-0.8-6.5-0.8c-4.6,0-10.5,0.6-15,2
		c-1,0.3-1.8,0.6-2.4,0.9c0.1-0.4,0.2-0.7,0.3-1c0.2-0.3,1-1.6,5-2.8c4.5-1.4,10.5-2,15-2c3.2,0,5.6,0.3,6.5,0.8
		c2.2,1.4,3.2,9.5,0.1,16.5c-0.6,1.3-1.7,2.4-3.1,3.2C1183.6,613.2,1183.7,613.1,1183.7,613z"/>
	<path id="XMLID_216_" class="st50" d="M1143,608.4c-1.6,3.7-3.9,6.6-5.6,7.2c-3.6,1.2-17.2,0.6-19.7-5.4c-3-7.1-2.1-15.2,0.1-16.5
		c0.8-0.5,3.3-0.8,6.5-0.8c4.6,0,10.5,0.6,15,2c4,1.2,4.8,2.4,5,2.8C1145.3,599.9,1144.8,604.2,1143,608.4z"/>
	<path id="XMLID_231_" class="st51" d="M1192.9,591.3h-4.6c-0.1-0.1-0.2-0.2-0.3-0.2c-3.2-2-16.1-1.5-23.9,0.8
		c-0.7,0.2-1.3,0.4-1.9,0.7c-1.4,0.5-2.7,1-4.2,1.2c-1.8,0.3-3.8,0.4-5.9,0.4c-2.1,0-4.1-0.1-5.9-0.4c-1.4-0.2-2.8-0.7-4.2-1.2
		c-0.6-0.2-1.2-0.5-1.9-0.7c-7.8-2.3-20.7-2.8-23.9-0.8c-0.1,0.1-0.2,0.1-0.3,0.2h-4.6c-0.8,0-1.5,0.7-1.5,1.5v3.3
		c0,0.7,0.3,1.3,0.9,1.7l1.3,0.9c0.4,0.3,0.7,0.8,0.6,1.3c-0.1,3.6,0.6,7.7,2.2,11.3c2.5,5.9,11.3,7.7,17.6,7.7
		c2.4,0,4.5-0.3,5.7-0.7c3.1-1,5.8-5.2,7.4-8.8c1.3-3.1,2-6.1,2.1-8.7c0-0.5,0.2-1,0.7-1.2c1-0.6,2.3-1,3.7-1c1.4,0,2.7,0.4,3.7,1
		c0.4,0.3,0.7,0.7,0.7,1.2c0,2.6,0.7,5.6,2.1,8.7c1.6,3.6,4.3,7.8,7.4,8.8c1.2,0.4,3.2,0.7,5.7,0.7c6.3,0,15.1-1.8,17.6-7.7
		c1.6-3.7,2.3-7.8,2.2-11.3c0-0.5,0.2-1,0.6-1.3l1.3-0.9c0.6-0.4,0.9-1,0.9-1.7v-3.3C1194.3,592,1193.7,591.3,1192.9,591.3z
		 M1143,608.4c-1.6,3.7-3.9,6.6-5.6,7.2c-3.6,1.2-17.2,0.6-19.7-5.4c-3-7.1-2.1-15.2,0.1-16.5c0.8-0.5,3.3-0.8,6.5-0.8
		c4.6,0,10.5,0.6,15,2c4,1.2,4.8,2.4,5,2.8C1145.3,599.9,1144.8,604.1,1143,608.4z M1186.6,610.1c-2.6,6-16.2,6.6-19.7,5.4
		c-1.7-0.6-4-3.5-5.6-7.2c-1.8-4.3-2.3-8.5-1.3-10.8c0.2-0.3,1-1.6,5-2.8c7.6-2.3,19.5-2.4,21.5-1.2
		C1188.6,595,1189.6,603.1,1186.6,610.1z"/>
	<path id="XMLID_212_" class="st14" d="M1120.5,613c-3-7.1-2.1-15.2,0.1-16.5c0.8-0.5,3.3-0.8,6.5-0.8c4.6,0,10.5,0.6,15,2
		c1,0.3,1.8,0.6,2.4,0.9c-0.1-0.4-0.2-0.7-0.3-1c-0.2-0.3-1-1.6-5-2.8c-4.5-1.4-10.5-2-15-2c-3.2,0-5.6,0.3-6.5,0.8
		c-2.2,1.4-3.2,9.5-0.1,16.5c0.6,1.3,1.7,2.4,3.1,3.2C1120.6,613.2,1120.6,613.1,1120.5,613z"/>
	<g id="XMLID_220_">
		<circle id="XMLID_211_" class="st18" cx="1133.9" cy="609.6" r="3.6"/>
		<circle id="XMLID_210_" class="st18" cx="1128.4" cy="604.1" r="1.8"/>
		<circle id="XMLID_209_" class="st18" cx="1176.9" cy="609.6" r="3.6"/>
		<circle id="XMLID_186_" class="st18" cx="1171.4" cy="604.1" r="1.8"/>
	</g>
</g>
<g id="lamp">
	<g id="XMLID_1035_">
		<path id="XMLID_1036_" class="st52" d="M599.6,507.7c-0.6,0-1.3,0-1.9-0.1l17.9,43.6l-37.7,14.2v14.4H669v-14.4L631.1,551L611,502
			C608.3,505.5,604.2,507.7,599.6,507.7z"/>
		<path id="XMLID_1037_" class="st20" d="M603.3,479.4c-1.2-0.3-2.4-0.5-3.7-0.5c-8,0-14.4,6.4-14.4,14.4c0,7.3,5.4,13.3,12.5,14.3
			c0.6,0.1,1.3,0.1,1.9,0.1c4.6,0,8.8-2.2,11.4-5.6c1.9-2.4,3-5.5,3-8.8c0-1.3-0.2-2.5-0.5-3.7C612.1,484.6,608.2,480.7,603.3,479.4
			z"/>
		<path id="XMLID_1038_" class="st20" d="M657.4,410.3c-7.5-7.5-19.7-7.5-27.1,0c-7.5,7.5-7.5,19.7,0,27.1l0.6,0.6l27.1-27.1
			L657.4,410.3z"/>
		<path id="XMLID_1039_" class="st21" d="M705.9,458.7l-26.3,26.3c0,0,0.1,0.1,0.1,0.1c7.3,7.3,19,7.3,26.3,0c7.3-7.3,7.3-19,0-26.3
			C706,458.7,706,458.7,705.9,458.7z"/>
		<polygon id="XMLID_1040_" class="st53" points="722.8,441.8 692.2,472.3 668.2,448.3 647.8,468.6 647.8,468.6 661.7,502.9 
			679.6,484.9 705.9,458.7 		"/>
		<polygon id="XMLID_1041_" class="st20" points="688.5,427.9 668.2,448.3 692.2,472.3 722.8,441.8 688.5,427.9 688.5,427.9 		"/>
		<path id="XMLID_1042_" class="st52" d="M668.2,448.3l20.4-20.4l0,0l-23.8-23.8l-6.8,6.8l-27.1,27.1l-6.8,6.8l6.9,6.9l-27.6,27.6
			c5,1.3,8.9,5.2,10.2,10.2l27.6-27.6l6.7,6.7l0,0L668.2,448.3z"/>
	</g>
</g>
</svg>
