<?xml version="1.0" encoding="UTF-8" standalone="no"?>
<svg
   xmlns:dc="http://purl.org/dc/elements/1.1/"
   xmlns:cc="http://creativecommons.org/ns#"
   xmlns:rdf="http://www.w3.org/1999/02/22-rdf-syntax-ns#"
   xmlns:svg="http://www.w3.org/2000/svg"
   xmlns="http://www.w3.org/2000/svg"
   id="svg46"
   version="1.1"
   viewBox="0 0 24.86338 36.192944"
   height="36.192944mm"
   width="24.86338mm">
  <defs
     id="defs40" />
  <metadata
     id="metadata43">
    <rdf:RDF>
      <cc:Work
         rdf:about="">
        <dc:format>image/svg+xml</dc:format>
        <dc:type
           rdf:resource="http://purl.org/dc/dcmitype/StillImage" />
        <dc:title></dc:title>
      </cc:Work>
    </rdf:RDF>
  </metadata>
  <g
     transform="translate(-29.901643,-52.873766)"
     id="layer1">
    <path
       id="path26"
       d="m 33.507011,87.892161 c -0.90379,-0.25993 -1.075761,-0.3565 -1.61106,-0.904791 -0.58631,-0.60054 -0.736021,-0.899131 -0.881611,-1.758421 -0.15209,-0.897609 -0.14941,-27.766219 0.003,-28.567869 0.0598,-0.31495 0.19607,-0.764 0.30278,-0.99787 0.212001,-0.46463 1.142331,-1.41741 1.384011,-1.41741 0.0831,0 0.20267,-0.0517 0.265789,-0.11477 0.180611,-0.18061 1.12406,-0.25149 3.41931,-0.25689 2.535361,-0.006 3.406121,0.0589 3.935881,0.29326 0.5568,0.2463 1.22444,0.92967 1.55069,1.58723 l 0.27756,0.55944 v 3.88259 c 0,4.09492 0.016,4.2655 0.443099,4.71274 0.461191,0.48298 0.49715,0.4867 4.703421,0.4867 2.16011,0 4.00131,0.0352 4.09156,0.0783 1.04875,0.50053 1.43435,0.80679 1.80364,1.43253 0.51497,0.87259 0.51673,0.90286 0.55534,9.54496 0.032,7.154531 0.0195,8.05843 -0.12018,8.693451 -0.18433,0.83824 -0.36594,1.271709 -0.6704,1.600049 -0.12273,0.132361 -0.22314,0.268841 -0.22314,0.3033 0,0.115181 -1.02169,0.742479 -1.20928,0.742479 -0.10178,0 -0.33771,0.0638 -0.52429,0.141751 -0.29342,0.1226 -1.45942,0.140419 -8.63412,0.132011 -7.554991,-0.009 -8.345461,-0.02429 -8.861851,-0.172781 z m 17.50095,-2.176331 c 0.16667,-0.101629 0.38991,-0.36459 0.49609,-0.584361 0.18982,-0.392869 0.19306,-0.535929 0.19306,-8.510209 v -8.11062 l -0.22655,-0.35888 c -0.47308,-0.74942 -0.30197,-0.72132 -4.54539,-0.74619 -2.43185,-0.0143 -3.94826,-0.0609 -4.25224,-0.1308 -0.834181,-0.19183 -1.43246,-0.57478 -1.8278,-1.16997 -0.67919,-1.02252 -0.70427,-1.20473 -0.76459,-5.55471 l -0.0534,-3.85382 -0.30851,-0.31541 c -0.19514,-0.19949 -0.43821,-0.33709 -0.66146,-0.37442 -0.19412,-0.0325 -1.44515,-0.0486 -2.78006,-0.0358 l -2.42711,0.0233 -0.29803,0.28349 c -0.607031,0.5774 -0.564651,-0.52361 -0.564491,14.6655 1.41e-4,13.01789 0.0103,13.891941 0.165371,14.200551 0.0909,0.180859 0.3097,0.42536 0.486289,0.543338 l 0.321081,0.214492 8.37238,-2.62e-4 c 8.142,-2.64e-4 8.38071,-0.005 8.6754,-0.185129 z"
       style="opacity:1;fill:#000000;fill-opacity:0.87745098;stroke-width:0.09449405" />
    <path
       id="path28"
       d="m 36.14142,83.21523 c -0.162199,-0.0711 -0.41733,-0.289809 -0.56696,-0.4859 l -0.27206,-0.356539 -0.028,-3.480161 -0.028,-3.48017 -0.58624,-10e-4 c -0.84512,-0.002 -0.8939,-0.0654 -0.4772,-0.61977 0.57977,-0.77126 1.74179,-2.2136 1.78337,-2.2136 0.0214,0 0.43354,0.51623 0.91588,1.14718 0.48234,0.63095 0.9539,1.24609 1.0479,1.36697 0.16748,0.21536 0.16652,0.22079 -0.0473,0.26936 -0.11999,0.0273 -0.45203,0.0606 -0.73788,0.0741 l -0.51971,0.0245 v 3.26005 3.260039 l 1.82328,0.02569 1.82328,0.02569 -0.0279,0.635781 -0.0279,0.63578 -1.889879,0.02101 c -1.43067,0.0158 -1.961541,-0.0105 -2.18479,-0.108431 z"
       style="opacity:1;fill:#000000;fill-opacity:0.87745098;stroke-width:0.09449405" />
  </g>
</svg>
